# xmcd
#
# Track frame offsets:
#	150
#	18518
#	37029
#	51302
#	70201
#	83479
#	97764
#	116598
#	132893
#	150638
#	168881
#	184567
#
# Disc length: 2657 seconds
#
# Revision: 1
# Processed by: cddbd v1.5.2PL0 Copyright (c) Steve Scherf et al.
# Submitted via: audiograbber 1.83.01
#
DISCID=8e0a5f0c
DTITLE=Macy Gray - Big
DYEAR=2007
DGENRE=R&B
TTITLE0=Finally Made Me Happy
TTITLE1=Shoo Be Doo
TTITLE2=What I Gotta Do
TTITLE3=Okay
TTITLE4=Glad You're Here
TTITLE5=Ghetto Love
TTITLE6=One For Me
TTITLE7=Strange Behavior
TTITLE8=Slowly
TTITLE9=Get Out
TTITLE10=Treat Me Like Your Money
TTITLE11=Everybody
EXTD=
EXTT0=
EXTT1=
EXTT2=
EXTT3=
EXTT4=
EXTT5=
EXTT6=
EXTT7=
EXTT8=
EXTT9=
EXTT10=
EXTT11=
PLAYORDER=
